<?xml version="1.0" encoding="UTF-8" standalone="no"?>
<!DOCTYPE svg PUBLIC "-//W3C//DTD SVG 1.1//EN" "http://www.w3.org/Graphics/SVG/1.1/DTD/svg11.dtd">
<svg width="100%" height="100%" viewBox="0 0 110 100" version="1.1" xmlns="http://www.w3.org/2000/svg" xmlns:xlink="http://www.w3.org/1999/xlink" xml:space="preserve" xmlns:serif="http://www.serif.com/" style="fill-rule:evenodd;clip-rule:evenodd;stroke-linejoin:round;stroke-miterlimit:1.41421;">
    <g transform="matrix(-2.50881,0,0,1,245.529,-15)">
        <path d="M59.871,76.515C58.75,76.907 58.726,78.048 58.629,79.357C58.48,81.359 59.159,83.402 60,83.5C69.334,83.5 78.668,83.5 88.003,83.5C88.624,83.5 88.852,86.46 88.015,86.5C79.327,86.639 70.638,86.362 61.95,86.501C59.32,86.626 57.51,96.022 59.655,101.153C60.276,102.637 61.121,103.486 61.989,103.5L90,103.5C91.249,103.355 91.34,101.643 91.389,100.323C91.46,98.405 90.795,96.592 90,96.5C80.666,96.5 71.332,96.5 61.997,96.5C61.377,96.5 61.148,93.54 61.985,93.5C70.673,93.361 79.362,93.638 88.05,93.499C90.68,93.374 92.49,83.978 90.345,78.847C89.724,77.363 88.879,76.514 88.011,76.5L60,76.5C59.957,76.505 59.914,76.51 59.871,76.515Z" style="fill:rgb(30,30,37);fill-rule:nonzero;"/>
    </g>
    <g transform="matrix(1,0,0,1,-45,-45)">
        <path d="M46.5,69.854C46.613,57.728 57.096,46.54 69.995,46.5L150,46.5C151.867,46.598 153.399,48.064 153.5,50L153.5,100C153.402,101.872 151.905,103.4 150,103.5C123.262,103.5 96.523,103.248 69.786,103.501C63.216,103.605 56.965,107.951 54.607,114.044C50.833,123.791 58.246,136.464 70.005,136.5L150,136.5C151.503,136.579 151.973,136.961 152.601,137.658C154.356,139.607 152.974,143.344 150,143.5C123.236,143.5 96.471,143.749 69.708,143.498C57.722,143.312 46.699,132.994 46.502,120.292C46.345,103.48 46.448,86.667 46.5,69.854ZM70.005,53.5C61.46,53.527 53.528,60.896 53.5,70.005L53.5,103.267C53.78,102.991 53.991,102.796 53.991,102.796C58.303,98.83 64.036,96.556 69.849,96.5L146.5,96.5L146.5,53.5C121.002,53.5 95.504,53.5 70.005,53.5Z" style="fill:rgb(30,30,37);fill-rule:nonzero;"/>
    </g>
</svg>
