<?xml version="1.0" encoding="UTF-8" standalone="no"?>
<!DOCTYPE svg PUBLIC "-//W3C//DTD SVG 1.1//EN" "http://www.w3.org/Graphics/SVG/1.1/DTD/svg11.dtd">
<svg width="100%" height="100%" viewBox="0 0 900 500" version="1.1" xmlns="http://www.w3.org/2000/svg" xmlns:xlink="http://www.w3.org/1999/xlink" xml:space="preserve" xmlns:serif="http://www.serif.com/" style="fill-rule:evenodd;clip-rule:evenodd;stroke-linejoin:round;stroke-miterlimit:1.41421;">
    <rect x="0" y="0" width="900" height="500" style="fill:url(#_Linear1);"/>
    <g transform="matrix(1,0,0,1,-50,0)">
        <g transform="matrix(0.599251,0.599251,-0.599251,0.599251,109.978,-183.071)">
            <rect x="113.135" y="192.365" width="104.297" height="104.297" style="fill:url(#_Linear2);"/>
        </g>
        <g transform="matrix(0.599251,0.599251,-0.599251,0.599251,609.978,-183.071)">
            <rect x="113.135" y="192.365" width="104.297" height="104.297" style="fill:url(#_Linear3);"/>
        </g>
        <g transform="matrix(0.599251,0.599251,-0.599251,0.599251,109.978,66.9288)">
            <rect x="113.135" y="192.365" width="104.297" height="104.297" style="fill:url(#_Linear4);"/>
        </g>
        <g transform="matrix(0.599251,0.599251,-0.599251,0.599251,609.978,66.9288)">
            <rect x="113.135" y="192.365" width="104.297" height="104.297" style="fill:url(#_Linear5);"/>
        </g>
        <g transform="matrix(0.599251,0.599251,-0.599251,0.599251,359.978,-183.071)">
            <rect x="113.135" y="192.365" width="104.297" height="104.297" style="fill:url(#_Linear6);"/>
        </g>
        <g transform="matrix(0.599251,0.599251,-0.599251,0.599251,859.978,-183.071)">
            <rect x="113.135" y="192.365" width="104.297" height="104.297" style="fill:url(#_Linear7);"/>
        </g>
        <g transform="matrix(0.599251,0.599251,-0.599251,0.599251,359.978,66.9288)">
            <rect x="113.135" y="192.365" width="104.297" height="104.297" style="fill:url(#_Linear8);"/>
        </g>
        <g transform="matrix(0.599251,0.599251,-0.599251,0.599251,859.978,66.9288)">
            <rect x="113.135" y="192.365" width="104.297" height="104.297" style="fill:url(#_Linear9);"/>
        </g>
        <g transform="matrix(0.599251,0.599251,-0.599251,0.599251,109.978,-58.0712)">
            <rect x="113.135" y="192.365" width="104.297" height="104.297" style="fill:url(#_Linear10);"/>
        </g>
        <g transform="matrix(0.599251,0.599251,-0.599251,0.599251,609.978,-58.0712)">
            <rect x="113.135" y="192.365" width="104.297" height="104.297" style="fill:url(#_Linear11);"/>
        </g>
        <g transform="matrix(0.599251,0.599251,-0.599251,0.599251,109.978,191.929)">
            <rect x="113.135" y="192.365" width="104.297" height="104.297" style="fill:url(#_Linear12);"/>
        </g>
        <g transform="matrix(0.599251,0.599251,-0.599251,0.599251,609.978,191.929)">
            <rect x="113.135" y="192.365" width="104.297" height="104.297" style="fill:url(#_Linear13);"/>
        </g>
        <g transform="matrix(0.599251,0.599251,-0.599251,0.599251,359.978,-58.0712)">
            <rect x="113.135" y="192.365" width="104.297" height="104.297" style="fill:url(#_Linear14);"/>
        </g>
        <g transform="matrix(0.599251,0.599251,-0.599251,0.599251,859.978,-58.0712)">
            <rect x="113.135" y="192.365" width="104.297" height="104.297" style="fill:url(#_Linear15);"/>
        </g>
        <g transform="matrix(0.599251,0.599251,-0.599251,0.599251,359.978,191.929)">
            <rect x="113.135" y="192.365" width="104.297" height="104.297" style="fill:url(#_Linear16);"/>
        </g>
        <g transform="matrix(0.599251,0.599251,-0.599251,0.599251,859.978,191.929)">
            <rect x="113.135" y="192.365" width="104.297" height="104.297" style="fill:url(#_Linear17);"/>
        </g>
        <g transform="matrix(0.599251,0.599251,-0.599251,0.599251,234.978,-183.071)">
            <rect x="113.135" y="192.365" width="104.297" height="104.297" style="fill:url(#_Linear18);"/>
        </g>
        <g transform="matrix(0.599251,0.599251,-0.599251,0.599251,734.978,-183.071)">
            <rect x="113.135" y="192.365" width="104.297" height="104.297" style="fill:url(#_Linear19);"/>
        </g>
        <g transform="matrix(0.599251,0.599251,-0.599251,0.599251,234.978,66.9288)">
            <rect x="113.135" y="192.365" width="104.297" height="104.297" style="fill:url(#_Linear20);"/>
        </g>
        <g transform="matrix(0.599251,0.599251,-0.599251,0.599251,734.978,66.9288)">
            <rect x="113.135" y="192.365" width="104.297" height="104.297" style="fill:url(#_Linear21);"/>
        </g>
        <g transform="matrix(0.599251,0.599251,-0.599251,0.599251,484.978,-183.071)">
            <rect x="113.135" y="192.365" width="104.297" height="104.297" style="fill:url(#_Linear22);"/>
        </g>
        <g transform="matrix(0.599251,0.599251,-0.599251,0.599251,984.978,-183.071)">
            <rect x="113.135" y="192.365" width="104.297" height="104.297" style="fill:url(#_Linear23);"/>
        </g>
        <g transform="matrix(0.599251,0.599251,-0.599251,0.599251,484.978,66.9288)">
            <rect x="113.135" y="192.365" width="104.297" height="104.297" style="fill:url(#_Linear24);"/>
        </g>
        <g transform="matrix(0.599251,0.599251,-0.599251,0.599251,984.978,66.9288)">
            <rect x="113.135" y="192.365" width="104.297" height="104.297" style="fill:url(#_Linear25);"/>
        </g>
        <g transform="matrix(0.599251,0.599251,-0.599251,0.599251,234.978,-58.0712)">
            <rect x="113.135" y="192.365" width="104.297" height="104.297" style="fill:url(#_Linear26);"/>
        </g>
        <g transform="matrix(0.599251,0.599251,-0.599251,0.599251,734.978,-58.0712)">
            <rect x="113.135" y="192.365" width="104.297" height="104.297" style="fill:url(#_Linear27);"/>
        </g>
        <g transform="matrix(0.599251,0.599251,-0.599251,0.599251,234.978,191.929)">
            <rect x="113.135" y="192.365" width="104.297" height="104.297" style="fill:url(#_Linear28);"/>
        </g>
        <g transform="matrix(0.599251,0.599251,-0.599251,0.599251,734.978,191.929)">
            <rect x="113.135" y="192.365" width="104.297" height="104.297" style="fill:url(#_Linear29);"/>
        </g>
        <g transform="matrix(0.599251,0.599251,-0.599251,0.599251,484.978,-58.0712)">
            <rect x="113.135" y="192.365" width="104.297" height="104.297" style="fill:url(#_Linear30);"/>
        </g>
        <g transform="matrix(0.599251,0.599251,-0.599251,0.599251,984.978,-58.0712)">
            <rect x="113.135" y="192.365" width="104.297" height="104.297" style="fill:url(#_Linear31);"/>
        </g>
        <g transform="matrix(0.599251,0.599251,-0.599251,0.599251,484.978,191.929)">
            <rect x="113.135" y="192.365" width="104.297" height="104.297" style="fill:url(#_Linear32);"/>
        </g>
        <g transform="matrix(0.599251,0.599251,-0.599251,0.599251,984.978,191.929)">
            <rect x="113.135" y="192.365" width="104.297" height="104.297" style="fill:url(#_Linear33);"/>
        </g>
    </g>
    <g transform="matrix(0.858601,0,0,0.858601,63.6296,72.3166)">
        <path d="M558.755,248.866L558.755,256.998C556.846,258.63 554.108,260.012 550.678,260.012C544.621,260.012 540.638,255.698 540.638,250.055L540.638,250C540.638,244.579 544.787,239.988 550.623,239.988C553.997,239.988 556.072,240.928 558.063,242.615L555.906,245.187C554.412,243.915 552.946,243.113 550.485,243.113C546.917,243.113 544.206,246.238 544.206,249.945L544.206,250C544.206,253.983 546.834,256.915 550.789,256.915C552.614,256.915 554.274,256.334 555.463,255.449L555.463,251.825L550.512,251.825L550.512,248.866L558.755,248.866ZM411.72,248.866L411.72,256.998C409.812,258.63 407.073,260.012 403.644,260.012C397.587,260.012 393.604,255.698 393.604,250.055L393.604,250C393.604,244.579 397.752,239.988 403.588,239.988C406.963,239.988 409.037,240.928 411.029,242.615L408.871,245.187C407.378,243.915 405.912,243.113 403.45,243.113C399.882,243.113 397.172,246.238 397.172,249.945L397.172,250C397.172,253.983 399.799,256.915 403.754,256.915C405.58,256.915 407.239,256.334 408.429,255.449L408.429,251.825L403.478,251.825L403.478,248.866L411.72,248.866ZM499.952,259.957C504.018,259.957 506.867,257.8 506.867,254.176L506.867,254.121C506.867,250.913 504.764,249.447 500.671,248.451C496.937,247.566 496.052,246.902 496.052,245.409L496.052,245.353C496.052,244.081 497.214,243.058 499.205,243.058C500.975,243.058 502.718,243.749 504.46,245.049L506.286,242.477C504.322,240.9 502.082,240.043 499.26,240.043C495.416,240.043 492.65,242.339 492.65,245.658L492.65,245.713C492.65,249.281 494.973,250.498 499.094,251.494C502.69,252.323 503.465,253.07 503.465,254.453L503.465,254.508C503.465,255.947 502.137,256.942 500.035,256.942C497.656,256.942 495.775,256.03 493.922,254.425L491.875,256.859C494.199,258.934 496.992,259.957 499.952,259.957ZM482.527,259.957C486.593,259.957 489.441,257.8 489.441,254.176L489.441,254.121C489.441,250.913 487.339,249.447 483.246,248.451C479.512,247.566 478.627,246.902 478.627,245.409L478.627,245.353C478.627,244.081 479.789,243.058 481.78,243.058C483.55,243.058 485.293,243.749 487.035,245.049L488.861,242.477C486.897,240.9 484.657,240.043 481.835,240.043C477.991,240.043 475.225,242.339 475.225,245.658L475.225,245.713C475.225,249.281 477.548,250.498 481.669,251.494C485.265,252.323 486.039,253.07 486.039,254.453L486.039,254.508C486.039,255.947 484.712,256.942 482.61,256.942C480.231,256.942 478.35,256.03 476.497,254.425L474.45,256.859C476.774,258.934 479.567,259.957 482.527,259.957ZM533.17,253.706L533.17,240.319L536.517,240.319L536.517,259.681L533.668,259.681L522.992,245.906L522.992,259.681L519.645,259.681L519.645,240.319L522.798,240.319L533.17,253.706ZM341.245,240.319L344.648,240.319L344.648,259.681L341.245,259.681L341.245,240.319ZM467.176,240.319L470.578,240.319L470.578,259.681L467.176,259.681L467.176,240.319ZM511.071,240.319L514.473,240.319L514.473,259.681L511.071,259.681L511.071,240.319ZM416.146,240.319L430.501,240.319L430.501,243.362L419.548,243.362L419.548,248.396L429.256,248.396L429.256,251.438L419.548,251.438L419.548,256.638L430.639,256.638L430.639,259.681L416.146,259.681L416.146,240.319ZM380.687,240.181L383.84,240.181L392.359,259.681L388.763,259.681L386.8,255.006L377.645,255.006L375.653,259.681L372.168,259.681L380.687,240.181ZM359.334,249.474L365.226,240.319L368.849,240.319L368.849,259.681L365.447,259.681L365.447,245.796L359.334,254.923L359.224,254.923L353.166,245.851L353.166,259.681L349.82,259.681L349.82,240.319L353.443,240.319L359.334,249.474ZM452.489,249.474L458.381,240.319L462.004,240.319L462.004,259.681L458.602,259.681L458.602,245.796L452.489,254.923L452.379,254.923L446.321,245.851L446.321,259.681L442.975,259.681L442.975,240.319L446.598,240.319L452.489,249.474ZM385.555,251.991L382.208,244.247L378.889,251.991L385.555,251.991Z" style="fill:white;"/>
    </g>
    <g transform="matrix(0.504977,0,0,0.504977,278.181,134.592)">
        <path d="M335.223,203.957L341.556,203.957L342.798,190.547C356.952,188.56 368.624,180.862 368.624,165.342L368.624,165.093C368.624,150.938 357.573,140.509 340.811,140.509C327.525,140.509 318.709,146.344 311.632,154.912L317.964,160.996C324.297,153.67 331.374,149.324 340.563,149.324C351.737,149.324 358.691,156.526 358.691,165.466L358.691,165.714C358.691,176.144 350.123,182.849 333.982,183.221L333.361,183.842L335.223,203.957ZM332.616,228.542L344.039,228.542L344.039,215.504L332.616,215.504L332.616,228.542Z" style="fill:white;fill-rule:nonzero;"/>
    </g>
    <defs>
        <linearGradient id="_Linear1" x1="0" y1="0" x2="1" y2="0" gradientUnits="userSpaceOnUse" gradientTransform="matrix(1371.99,-165.618,165.618,1371.99,-250.652,187.197)"><stop offset="0" style="stop-color:rgb(111,91,255);stop-opacity:1"/><stop offset="1" style="stop-color:rgb(112,237,255);stop-opacity:1"/></linearGradient>
        <linearGradient id="_Linear2" x1="0" y1="0" x2="1" y2="0" gradientUnits="userSpaceOnUse" gradientTransform="matrix(1231.66,-304.203,304.203,1231.66,102.706,202.794)"><stop offset="0" style="stop-color:rgb(111,91,255);stop-opacity:1"/><stop offset="1" style="stop-color:rgb(112,237,255);stop-opacity:1"/></linearGradient>
        <linearGradient id="_Linear3" x1="0" y1="0" x2="1" y2="0" gradientUnits="userSpaceOnUse" gradientTransform="matrix(1231.66,-304.203,304.203,1231.66,-314.482,619.981)"><stop offset="0" style="stop-color:rgb(111,91,255);stop-opacity:1"/><stop offset="1" style="stop-color:rgb(112,237,255);stop-opacity:1"/></linearGradient>
        <linearGradient id="_Linear4" x1="0" y1="0" x2="1" y2="0" gradientUnits="userSpaceOnUse" gradientTransform="matrix(1231.66,-304.203,304.203,1231.66,-105.888,-5.79957)"><stop offset="0" style="stop-color:rgb(111,91,255);stop-opacity:1"/><stop offset="1" style="stop-color:rgb(112,237,255);stop-opacity:1"/></linearGradient>
        <linearGradient id="_Linear5" x1="0" y1="0" x2="1" y2="0" gradientUnits="userSpaceOnUse" gradientTransform="matrix(1231.66,-304.203,304.203,1231.66,-523.075,411.388)"><stop offset="0" style="stop-color:rgb(111,91,255);stop-opacity:1"/><stop offset="1" style="stop-color:rgb(112,237,255);stop-opacity:1"/></linearGradient>
        <linearGradient id="_Linear6" x1="0" y1="0" x2="1" y2="0" gradientUnits="userSpaceOnUse" gradientTransform="matrix(1231.66,-304.203,304.203,1231.66,-105.888,411.388)"><stop offset="0" style="stop-color:rgb(111,91,255);stop-opacity:1"/><stop offset="1" style="stop-color:rgb(112,237,255);stop-opacity:1"/></linearGradient>
        <linearGradient id="_Linear7" x1="0" y1="0" x2="1" y2="0" gradientUnits="userSpaceOnUse" gradientTransform="matrix(1231.66,-304.203,304.203,1231.66,-523.075,828.575)"><stop offset="0" style="stop-color:rgb(111,91,255);stop-opacity:1"/><stop offset="1" style="stop-color:rgb(112,237,255);stop-opacity:1"/></linearGradient>
        <linearGradient id="_Linear8" x1="0" y1="0" x2="1" y2="0" gradientUnits="userSpaceOnUse" gradientTransform="matrix(1231.66,-304.203,304.203,1231.66,-314.482,202.794)"><stop offset="0" style="stop-color:rgb(111,91,255);stop-opacity:1"/><stop offset="1" style="stop-color:rgb(112,237,255);stop-opacity:1"/></linearGradient>
        <linearGradient id="_Linear9" x1="0" y1="0" x2="1" y2="0" gradientUnits="userSpaceOnUse" gradientTransform="matrix(1231.66,-304.203,304.203,1231.66,-731.669,619.982)"><stop offset="0" style="stop-color:rgb(111,91,255);stop-opacity:1"/><stop offset="1" style="stop-color:rgb(112,237,255);stop-opacity:1"/></linearGradient>
        <linearGradient id="_Linear10" x1="0" y1="0" x2="1" y2="0" gradientUnits="userSpaceOnUse" gradientTransform="matrix(1231.66,-304.203,304.203,1231.66,-1.59099,98.4973)"><stop offset="0" style="stop-color:rgb(111,91,255);stop-opacity:1"/><stop offset="1" style="stop-color:rgb(112,237,255);stop-opacity:1"/></linearGradient>
        <linearGradient id="_Linear11" x1="0" y1="0" x2="1" y2="0" gradientUnits="userSpaceOnUse" gradientTransform="matrix(1231.66,-304.203,304.203,1231.66,-418.778,515.685)"><stop offset="0" style="stop-color:rgb(111,91,255);stop-opacity:1"/><stop offset="1" style="stop-color:rgb(112,237,255);stop-opacity:1"/></linearGradient>
        <linearGradient id="_Linear12" x1="0" y1="0" x2="1" y2="0" gradientUnits="userSpaceOnUse" gradientTransform="matrix(1231.66,-304.203,304.203,1231.66,-210.185,-110.097)"><stop offset="0" style="stop-color:rgb(111,91,255);stop-opacity:1"/><stop offset="1" style="stop-color:rgb(112,237,255);stop-opacity:1"/></linearGradient>
        <linearGradient id="_Linear13" x1="0" y1="0" x2="1" y2="0" gradientUnits="userSpaceOnUse" gradientTransform="matrix(1231.66,-304.203,304.203,1231.66,-627.372,307.091)"><stop offset="0" style="stop-color:rgb(111,91,255);stop-opacity:1"/><stop offset="1" style="stop-color:rgb(112,237,255);stop-opacity:1"/></linearGradient>
        <linearGradient id="_Linear14" x1="0" y1="0" x2="1" y2="0" gradientUnits="userSpaceOnUse" gradientTransform="matrix(1231.66,-304.203,304.203,1231.66,-210.185,307.091)"><stop offset="0" style="stop-color:rgb(111,91,255);stop-opacity:1"/><stop offset="1" style="stop-color:rgb(112,237,255);stop-opacity:1"/></linearGradient>
        <linearGradient id="_Linear15" x1="0" y1="0" x2="1" y2="0" gradientUnits="userSpaceOnUse" gradientTransform="matrix(1231.66,-304.203,304.203,1231.66,-627.372,724.278)"><stop offset="0" style="stop-color:rgb(111,91,255);stop-opacity:1"/><stop offset="1" style="stop-color:rgb(112,237,255);stop-opacity:1"/></linearGradient>
        <linearGradient id="_Linear16" x1="0" y1="0" x2="1" y2="0" gradientUnits="userSpaceOnUse" gradientTransform="matrix(1231.66,-304.203,304.203,1231.66,-418.779,98.4971)"><stop offset="0" style="stop-color:rgb(111,91,255);stop-opacity:1"/><stop offset="1" style="stop-color:rgb(112,237,255);stop-opacity:1"/></linearGradient>
        <linearGradient id="_Linear17" x1="0" y1="0" x2="1" y2="0" gradientUnits="userSpaceOnUse" gradientTransform="matrix(1231.66,-304.203,304.203,1231.66,-835.966,515.685)"><stop offset="0" style="stop-color:rgb(111,91,255);stop-opacity:1"/><stop offset="1" style="stop-color:rgb(112,237,255);stop-opacity:1"/></linearGradient>
        <linearGradient id="_Linear18" x1="0" y1="0" x2="1" y2="0" gradientUnits="userSpaceOnUse" gradientTransform="matrix(1231.66,-304.203,304.203,1231.66,-1.59115,307.091)"><stop offset="0" style="stop-color:rgb(111,91,255);stop-opacity:1"/><stop offset="1" style="stop-color:rgb(112,237,255);stop-opacity:1"/></linearGradient>
        <linearGradient id="_Linear19" x1="0" y1="0" x2="1" y2="0" gradientUnits="userSpaceOnUse" gradientTransform="matrix(1231.66,-304.203,304.203,1231.66,-418.779,724.278)"><stop offset="0" style="stop-color:rgb(111,91,255);stop-opacity:1"/><stop offset="1" style="stop-color:rgb(112,237,255);stop-opacity:1"/></linearGradient>
        <linearGradient id="_Linear20" x1="0" y1="0" x2="1" y2="0" gradientUnits="userSpaceOnUse" gradientTransform="matrix(1231.66,-304.203,304.203,1231.66,-210.185,98.4973)"><stop offset="0" style="stop-color:rgb(111,91,255);stop-opacity:1"/><stop offset="1" style="stop-color:rgb(112,237,255);stop-opacity:1"/></linearGradient>
        <linearGradient id="_Linear21" x1="0" y1="0" x2="1" y2="0" gradientUnits="userSpaceOnUse" gradientTransform="matrix(1231.66,-304.203,304.203,1231.66,-627.372,515.685)"><stop offset="0" style="stop-color:rgb(111,91,255);stop-opacity:1"/><stop offset="1" style="stop-color:rgb(112,237,255);stop-opacity:1"/></linearGradient>
        <linearGradient id="_Linear22" x1="0" y1="0" x2="1" y2="0" gradientUnits="userSpaceOnUse" gradientTransform="matrix(1231.66,-304.203,304.203,1231.66,-210.185,515.685)"><stop offset="0" style="stop-color:rgb(111,91,255);stop-opacity:1"/><stop offset="1" style="stop-color:rgb(112,237,255);stop-opacity:1"/></linearGradient>
        <linearGradient id="_Linear23" x1="0" y1="0" x2="1" y2="0" gradientUnits="userSpaceOnUse" gradientTransform="matrix(1231.66,-304.203,304.203,1231.66,-627.372,932.872)"><stop offset="0" style="stop-color:rgb(111,91,255);stop-opacity:1"/><stop offset="1" style="stop-color:rgb(112,237,255);stop-opacity:1"/></linearGradient>
        <linearGradient id="_Linear24" x1="0" y1="0" x2="1" y2="0" gradientUnits="userSpaceOnUse" gradientTransform="matrix(1231.66,-304.203,304.203,1231.66,-418.778,307.091)"><stop offset="0" style="stop-color:rgb(111,91,255);stop-opacity:1"/><stop offset="1" style="stop-color:rgb(112,237,255);stop-opacity:1"/></linearGradient>
        <linearGradient id="_Linear25" x1="0" y1="0" x2="1" y2="0" gradientUnits="userSpaceOnUse" gradientTransform="matrix(1231.66,-304.203,304.203,1231.66,-835.966,724.278)"><stop offset="0" style="stop-color:rgb(111,91,255);stop-opacity:1"/><stop offset="1" style="stop-color:rgb(112,237,255);stop-opacity:1"/></linearGradient>
        <linearGradient id="_Linear26" x1="0" y1="0" x2="1" y2="0" gradientUnits="userSpaceOnUse" gradientTransform="matrix(1231.66,-304.203,304.203,1231.66,-105.888,202.794)"><stop offset="0" style="stop-color:rgb(111,91,255);stop-opacity:1"/><stop offset="1" style="stop-color:rgb(112,237,255);stop-opacity:1"/></linearGradient>
        <linearGradient id="_Linear27" x1="0" y1="0" x2="1" y2="0" gradientUnits="userSpaceOnUse" gradientTransform="matrix(1231.66,-304.203,304.203,1231.66,-523.075,619.982)"><stop offset="0" style="stop-color:rgb(111,91,255);stop-opacity:1"/><stop offset="1" style="stop-color:rgb(112,237,255);stop-opacity:1"/></linearGradient>
        <linearGradient id="_Linear28" x1="0" y1="0" x2="1" y2="0" gradientUnits="userSpaceOnUse" gradientTransform="matrix(1231.66,-304.203,304.203,1231.66,-314.482,-5.79974)"><stop offset="0" style="stop-color:rgb(111,91,255);stop-opacity:1"/><stop offset="1" style="stop-color:rgb(112,237,255);stop-opacity:1"/></linearGradient>
        <linearGradient id="_Linear29" x1="0" y1="0" x2="1" y2="0" gradientUnits="userSpaceOnUse" gradientTransform="matrix(1231.66,-304.203,304.203,1231.66,-731.669,411.388)"><stop offset="0" style="stop-color:rgb(111,91,255);stop-opacity:1"/><stop offset="1" style="stop-color:rgb(112,237,255);stop-opacity:1"/></linearGradient>
        <linearGradient id="_Linear30" x1="0" y1="0" x2="1" y2="0" gradientUnits="userSpaceOnUse" gradientTransform="matrix(1231.66,-304.203,304.203,1231.66,-314.482,411.388)"><stop offset="0" style="stop-color:rgb(111,91,255);stop-opacity:1"/><stop offset="1" style="stop-color:rgb(112,237,255);stop-opacity:1"/></linearGradient>
        <linearGradient id="_Linear31" x1="0" y1="0" x2="1" y2="0" gradientUnits="userSpaceOnUse" gradientTransform="matrix(1231.66,-304.203,304.203,1231.66,-731.669,828.575)"><stop offset="0" style="stop-color:rgb(111,91,255);stop-opacity:1"/><stop offset="1" style="stop-color:rgb(112,237,255);stop-opacity:1"/></linearGradient>
        <linearGradient id="_Linear32" x1="0" y1="0" x2="1" y2="0" gradientUnits="userSpaceOnUse" gradientTransform="matrix(1231.66,-304.203,304.203,1231.66,-523.075,202.794)"><stop offset="0" style="stop-color:rgb(111,91,255);stop-opacity:1"/><stop offset="1" style="stop-color:rgb(112,237,255);stop-opacity:1"/></linearGradient>
        <linearGradient id="_Linear33" x1="0" y1="0" x2="1" y2="0" gradientUnits="userSpaceOnUse" gradientTransform="matrix(1231.66,-304.203,304.203,1231.66,-940.263,619.981)"><stop offset="0" style="stop-color:rgb(111,91,255);stop-opacity:1"/><stop offset="1" style="stop-color:rgb(112,237,255);stop-opacity:1"/></linearGradient>
    </defs>
</svg>
